<svg width="36" height="36" viewBox="0 0 36 36" fill="none" xmlns="http://www.w3.org/2000/svg">
<path fill-rule="evenodd" clip-rule="evenodd" d="M12.3002 3.29983C10.8597 3.87606 9.97277 5.42056 10.4358 7.00369C7.26886 9.49777 5.90179 13.8679 7.34979 17.8499L8.3999 20.8499C8.84979 22.3499 9.59979 25.3499 8.69983 27.15C8.3999 27.5999 8.3999 28.05 8.54986 28.4999C8.84979 29.0999 9.44983 29.55 10.0499 29.55C10.1998 29.55 10.3498 29.55 10.6499 29.4001L30.1499 22.3499C31.0499 22.05 31.3498 21.15 31.0499 20.2499C30.8999 19.8 30.4498 19.4999 30.1499 19.3499C28.1998 18.45 26.9999 15.7499 26.3999 14.2499L25.3498 11.2499C23.9999 7.34994 20.2499 4.94998 16.3498 4.94998C16.2791 4.94998 16.2079 4.95053 16.1361 4.95199C15.4802 3.55105 13.7501 2.86495 12.3002 3.29983ZM22.4998 12.3C21.5998 9.7499 19.0499 7.94998 16.3498 7.94998C15.5998 7.94998 14.8498 7.94998 14.0998 8.2499C12.4498 8.84994 11.0998 10.05 10.3498 11.7C9.59979 13.3499 9.59979 15.15 10.1998 16.8L11.2498 19.8C11.8498 21.45 12.2999 23.55 12.1497 25.65L26.6998 20.4C25.1998 18.9 24.1497 16.95 23.5499 15.3L22.4998 12.3Z" fill="black" fill-opacity="0.95"/>
<path d="M19.8002 32.55C22.2002 31.8 23.4001 29.2499 22.5001 26.8499L14.1002 29.8499C14.8502 32.2499 17.4001 33.45 19.8002 32.55Z" fill="black" fill-opacity="0.95"/>
</svg>
