<svg xmlns="http://www.w3.org/2000/svg" xmlns:xlink="http://www.w3.org/1999/xlink" version="1.1" width="256" height="256" viewBox="0 0 256 256" xml:space="preserve">

<defs>
</defs>
<g style="stroke: none; stroke-width: 0; stroke-dasharray: none; stroke-linecap: butt; stroke-linejoin: miter; stroke-miterlimit: 10; fill: none; fill-rule: nonzero; opacity: 1;" transform="translate(1.4065934065934016 1.4065934065934016) scale(2.81 2.81)" >
	<polyline points="59.44,63.74 20.05,66.39 8.93,46.33 32.16,14.54 " style="stroke: none; stroke-width: 1; stroke-dasharray: none; stroke-linecap: butt; stroke-linejoin: miter; stroke-miterlimit: 10; fill: rgb(208,208,216); fill-rule: nonzero; opacity: 1;" transform="  matrix(1 0 0 1 0 0) "/>
	<ellipse cx="48.173" cy="37.825" rx="14.323" ry="28.645" style="stroke: none; stroke-width: 1; stroke-dasharray: none; stroke-linecap: butt; stroke-linejoin: miter; stroke-miterlimit: 10; fill: rgb(233,233,244); fill-rule: nonzero; opacity: 1;" transform=" matrix(0.8745 -0.485 0.485 0.8745 -12.2988 28.1083) "/>
	<path d="M 48.824 49.651 c 5.205 -3.081 7.166 -9.544 4.359 -14.606 c -2.807 -5.062 -9.328 -6.821 -14.698 -4.038 C 39.331 38.474 42.777 44.689 48.824 49.651 z" style="stroke: none; stroke-width: 1; stroke-dasharray: none; stroke-linecap: butt; stroke-linejoin: miter; stroke-miterlimit: 10; fill: rgb(226,84,84); fill-rule: nonzero; opacity: 1;" transform=" matrix(1 0 0 1 0 0) " stroke-linecap="round" />
	<path d="M 20.05 66.387 l -3.022 1.676 c -5.538 3.071 -12.516 1.071 -15.587 -4.466 l 0 0 C -1.63 58.059 0.369 51.08 5.907 48.009 l 3.022 -1.676" style="stroke: none; stroke-width: 1; stroke-dasharray: none; stroke-linecap: butt; stroke-linejoin: miter; stroke-miterlimit: 10; fill: rgb(226,84,84); fill-rule: nonzero; opacity: 1;" transform=" matrix(1 0 0 1 0 0) " stroke-linecap="round" />
	<path d="M 20.05 66.387 l -3.931 2.18 l 10.049 18.12 c 1.237 2.23 4.047 3.035 6.276 1.799 l 0 0 c 2.23 -1.237 3.035 -4.047 1.798 -6.276 l -8.893 -16.036 L 20.05 66.387 z" style="stroke: none; stroke-width: 1; stroke-dasharray: none; stroke-linecap: butt; stroke-linejoin: miter; stroke-miterlimit: 10; fill: rgb(186,71,71); fill-rule: nonzero; opacity: 1;" transform=" matrix(1 0 0 1 0 0) " stroke-linecap="round" />
	<path d="M 66.924 28.934 c -0.53 0 -1.045 -0.28 -1.32 -0.777 c -0.405 -0.729 -0.141 -1.647 0.587 -2.051 l 18.105 -10.041 c 0.729 -0.402 1.647 -0.141 2.05 0.588 c 0.405 0.729 0.141 1.647 -0.587 2.051 L 67.654 28.745 C 67.422 28.873 67.171 28.934 66.924 28.934 z" style="stroke: none; stroke-width: 1; stroke-dasharray: none; stroke-linecap: butt; stroke-linejoin: miter; stroke-miterlimit: 10; fill: rgb(226,84,84); fill-rule: nonzero; opacity: 1;" transform=" matrix(1 0 0 1 0 0) " stroke-linecap="round" />
	<path d="M 59.197 15.005 c -0.319 0 -0.641 -0.101 -0.914 -0.309 c -0.662 -0.506 -0.79 -1.452 -0.284 -2.114 l 8.438 -11.054 c 0.505 -0.663 1.453 -0.79 2.114 -0.284 c 0.662 0.506 0.79 1.452 0.284 2.114 l -8.438 11.054 C 60.101 14.801 59.651 15.005 59.197 15.005 z" style="stroke: none; stroke-width: 1; stroke-dasharray: none; stroke-linecap: butt; stroke-linejoin: miter; stroke-miterlimit: 10; fill: rgb(226,84,84); fill-rule: nonzero; opacity: 1;" transform=" matrix(1 0 0 1 0 0) " stroke-linecap="round" />
	<path d="M 74.645 42.862 c -0.769 0 -1.426 -0.586 -1.5 -1.367 c -0.079 -0.829 0.53 -1.565 1.36 -1.643 l 13.844 -1.303 c 0.832 -0.086 1.565 0.531 1.643 1.36 c 0.079 0.829 -0.53 1.565 -1.36 1.643 l -13.844 1.303 C 74.74 42.86 74.692 42.862 74.645 42.862 z" style="stroke: none; stroke-width: 1; stroke-dasharray: none; stroke-linecap: butt; stroke-linejoin: miter; stroke-miterlimit: 10; fill: rgb(226,84,84); fill-rule: nonzero; opacity: 1;" transform=" matrix(1 0 0 1 0 0) " stroke-linecap="round" />
</g>
</svg>